<svg width="99" height="74" viewBox="0 0 99 74" fill="none" xmlns="http://www.w3.org/2000/svg">
<path d="M85.5371 37.3166C85.5371 18.1949 70.0362 2.69453 50.915 2.69453C31.7937 2.69453 16.2929 18.1949 16.2929 37.3166C16.2929 56.4374 31.7937 71.9384 50.915 71.9384C70.0363 71.9384 85.5371 56.4374 85.5371 37.3166Z" fill="white" stroke="#FED136" stroke-width="3"/>
<path fill-rule="evenodd" clip-rule="evenodd" d="M63.634 19H36.7268C34.4978 19 32.6907 20.8069 32.6907 23.0358V40.5256C32.6907 40.9973 32.7717 41.4502 32.9204 41.871H32.6907V44.5617H36.7268V23.0358H63.634V44.5617H67.6702V41.871H67.4404C67.5892 41.4502 67.6702 40.9973 67.6702 40.5256V23.0358C67.6702 20.8069 65.863 19 63.634 19ZM32.6907 47.2519H67.6702C69.1561 47.2519 70.3609 48.4571 70.3609 49.9432C70.3609 51.4291 67.8108 52.6338 66.3248 52.6338H34.0361C32.55 52.6338 30 51.4291 30 49.9432C30 48.4571 31.2048 47.2519 32.6907 47.2519ZM54.2166 49.9432H46.1444C45.4013 49.9432 44.7991 50.2443 44.7991 50.6156C44.7991 50.987 45.4013 51.2883 46.1444 51.2883H54.2166C54.9596 51.2883 55.562 50.987 55.562 50.6156C55.562 50.2443 54.9596 49.9432 54.2166 49.9432ZM41.147 34.7839L43.0413 32.8807C43.5642 32.3556 44.4123 32.3556 44.9353 32.8807L47.4182 35.375L55.4206 27.337C55.9436 26.8113 56.7918 26.8113 57.3148 27.337L59.209 29.2391C59.732 29.7645 59.732 30.6167 59.209 31.142L48.791 41.6063C48.3431 42.0562 47.6569 42.1208 47.1405 41.8002C46.7031 41.9046 46.2236 41.7854 45.8824 41.4427L41.147 36.6864C40.624 36.1611 40.624 35.3096 41.147 34.7839Z" fill="#FED136"/>
</svg>
