<svg width="103" height="75" viewBox="0 0 103 75" fill="none" xmlns="http://www.w3.org/2000/svg">
<path d="M84.579 38.309C84.579 19.1877 69.0781 3.68708 49.9568 3.68708C30.8356 3.68708 15.3347 19.1877 15.3347 38.309C15.3347 57.43 30.8355 72.9314 49.9568 72.9314C69.0781 72.9314 84.579 57.43 84.579 38.309Z" fill="white" stroke="#FED136" stroke-width="3"/>
<path fill-rule="evenodd" clip-rule="evenodd" d="M47.9994 16C53.1539 16 57.3323 19.6563 57.3323 24.1667V33.4996H58.499C60.4319 33.4996 61.9988 35.0663 61.9988 36.9997V49.8321C61.9988 51.7648 60.4319 53.3322 58.499 53.3322H37.4999C35.567 53.3322 34 51.7648 34 49.8321V36.9997C34 35.0663 35.567 33.4996 37.4999 33.4996H38.6665V24.1667C38.6665 19.6563 42.845 16 47.9994 16ZM52.4001 33.4996H43.5986C43.4265 33.1346 43.3329 32.7417 43.3329 32.3325V24.1667C43.3329 22.234 45.4222 20.6666 47.9994 20.6666C50.5766 20.6666 52.6658 22.234 52.6658 24.1667V32.3325C52.6658 32.7417 52.5722 33.1346 52.4001 33.4996ZM50.3326 45.7079C51.7274 44.9009 52.6658 43.3926 52.6658 41.6654C52.6658 39.089 50.5766 36.9997 47.9994 36.9997C45.4222 36.9997 43.3329 39.089 43.3329 41.6654C43.3329 43.3927 44.2714 44.901 45.6662 45.7079V47.4984C45.6662 48.788 46.7108 49.8321 47.9994 49.8321C49.2881 49.8321 50.3326 48.788 50.3326 47.4984V45.7079Z" fill="#FED136"/>
</svg>
