<svg width="95" height="73" viewBox="0 0 95 73" fill="none" xmlns="http://www.w3.org/2000/svg">
<path d="M82.6551 36.311C82.6551 17.1899 67.1542 1.68921 48.0329 1.68921C28.9117 1.68921 13.4109 17.1899 13.4109 36.311C13.4109 55.432 28.9116 70.9331 48.0329 70.9331C67.1542 70.9331 82.6551 55.432 82.6551 36.311Z" fill="white" stroke="#FED136" stroke-width="3"/>
<path fill-rule="evenodd" clip-rule="evenodd" d="M50.0591 15.3696C51.3759 14.6089 53.0599 15.0601 53.8201 16.3771L57.9501 23.5308C58.0701 23.7385 58.1598 23.9554 58.2208 24.1764H62.1049C64.0057 24.1764 65.5466 25.7171 65.5466 27.6177C65.5466 29.5182 64.0057 31.0596 62.1049 31.0596H30.4418C28.5409 31.0596 27 29.5182 27 27.6177C27 25.7171 28.5409 24.1764 30.4418 24.1764H34.3256C34.3866 23.9554 34.4764 23.7385 34.5963 23.5308L38.7262 16.3771C39.4867 15.0601 41.1705 14.6089 42.4874 15.3696C43.8043 16.1302 44.2555 17.8137 43.4951 19.1307L40.5819 24.1764H51.9646L49.0513 19.1307C48.291 17.8137 48.7421 16.1302 50.0591 15.3696ZM31.0241 53.0863L29.8327 32.436H62.7138L61.5224 53.0863H31.0241ZM47.6499 39.3192C47.6499 38.559 47.0337 37.943 46.2733 37.943C45.5131 37.943 44.8966 38.559 44.8966 39.3192V47.5796C44.8966 48.3398 45.5131 48.9562 46.2733 48.9562C47.0337 48.9562 47.6499 48.3398 47.6499 47.5796V39.3192ZM54.5334 37.943C55.2936 37.943 55.91 38.559 55.91 39.3192V47.5796C55.91 48.3398 55.2936 48.9562 54.5334 48.9562C53.773 48.9562 53.1565 48.3398 53.1565 47.5796V39.3192C53.1565 38.559 53.773 37.943 54.5334 37.943ZM39.39 39.3192C39.39 38.559 38.7736 37.943 38.0134 37.943C37.253 37.943 36.6366 38.559 36.6366 39.3192V47.5796C36.6366 48.3398 37.253 48.9562 38.0134 48.9562C38.7736 48.9562 39.39 48.3398 39.39 47.5796V39.3192Z" fill="#FED136"/>
<path fill-rule="evenodd" clip-rule="evenodd" d="M50.0591 15.3696C51.3759 14.6089 53.0599 15.0601 53.8201 16.3771L57.9501 23.5308C58.0701 23.7385 58.1598 23.9554 58.2208 24.1764H62.1049C64.0057 24.1764 65.5466 25.7171 65.5466 27.6177C65.5466 29.5182 64.0057 31.0596 62.1049 31.0596H30.4418C28.5409 31.0596 27 29.5182 27 27.6177C27 25.7171 28.5409 24.1764 30.4418 24.1764H34.3256C34.3866 23.9554 34.4764 23.7385 34.5963 23.5308L38.7262 16.3771C39.4867 15.0601 41.1705 14.6089 42.4874 15.3696C43.8043 16.1302 44.2555 17.8137 43.4951 19.1307L40.5819 24.1764H51.9646L49.0513 19.1307C48.291 17.8137 48.7421 16.1302 50.0591 15.3696ZM31.0241 53.0863L29.8327 32.436H62.7138L61.5224 53.0863H31.0241ZM47.6499 39.3192C47.6499 38.559 47.0337 37.943 46.2733 37.943C45.5131 37.943 44.8966 38.559 44.8966 39.3192V47.5796C44.8966 48.3398 45.5131 48.9562 46.2733 48.9562C47.0337 48.9562 47.6499 48.3398 47.6499 47.5796V39.3192ZM54.5334 37.943C55.2936 37.943 55.91 38.559 55.91 39.3192V47.5796C55.91 48.3398 55.2936 48.9562 54.5334 48.9562C53.773 48.9562 53.1565 48.3398 53.1565 47.5796V39.3192C53.1565 38.559 53.773 37.943 54.5334 37.943ZM39.39 39.3192C39.39 38.559 38.7736 37.943 38.0134 37.943C37.253 37.943 36.6366 38.559 36.6366 39.3192V47.5796C36.6366 48.3398 37.253 48.9562 38.0134 48.9562C38.7736 48.9562 39.39 48.3398 39.39 47.5796V39.3192Z" fill="#FED136"/>
</svg>
